<svg height="512pt" viewBox="-18 0 511 512" width="512pt" xmlns="http://www.w3.org/2000/svg"><path d="m474.675781 218.347656c0-19.855468-7.070312-38.660156-19.90625-52.953125-10.492187-11.6875-23.882812-19.34375-38.5-22.1875-14.191406-42.761719-38.652343-51.871093-72.699219-49.90625-20.738281-19.53125-43.820312-31.609375-64.921874-33.410156-9.507813-.816406-18.292969.507813-26.007813 3.847656v-1.136719c0-11.75 6.566406-22.066406 16.335937-25.664062l23.535157-8.671875-10.414063-28.265625-23.535156 8.671875c-21.558594 7.945313-36.042969 29.617187-36.042969 53.929687v1.132813c-7.710937-3.335937-16.492187-4.660156-25.996093-3.84375-21.132813 1.804687-44.253907 13.917969-65.015626 33.5-15.027343-.933594-31.355468.003906-45.289062 8.519531-13.023438 7.957032-22.410156 21.324219-29.140625 41.671875-32.472656 7.289063-56.578125 38.144531-56.578125 74.765625 0 27.910156 13.929688 52.933594 35.824219 66.316406-1.566407 6.335938-2.359375 12.875-2.359375 19.5625 0 29.015626 15.28125 55.015626 38.574218 67.902344-1.339843 5.886719-2.015624 11.953125-2.015624 18.140625 0 38.796875 27.132812 70.933594 62.136718 75.769531 11.148438 27.546876 36.707032 45.960938 65.414063 45.960938 14.28125 0 27.910156-4.460938 39.511719-12.765625 11.605468 8.304687 25.234374 12.765625 39.515624 12.765625 28.707032 0 54.265626-18.414062 65.414063-45.960938 35-4.835937 62.136719-36.972656 62.136719-75.769531 0-6.1875-.675782-12.253906-2.015625-18.140625 23.292969-12.886718 38.570312-38.886718 38.570312-67.902344 0-6.6875-.789062-13.230468-2.355469-19.5625 21.894532-13.382812 35.824219-38.40625 35.824219-66.316406zm-135.09375-84.660156c21.191407 27.441406 20.628907 70.132812 18.757813 91.328125-19.320313-1.6875-55.929688-8.433594-76.382813-34.921875-14.765625-19.117188-24.753906-40.417969-28.132812-59.976562-.722657-4.183594-1.109375-8.148438-1.175781-11.839844.003906-.371094.074218-4.550782.222656-6.167969l41.003906 54.605469 24.085938-18.085938-44.179688-58.839844c.75.011719 1.515625.042969 2.308594.113282 19.300781 1.644531 44.222656 18.832031 63.492187 43.785156zm-101.996093 41.871094c5.527343 11.320312 12.429687 22.457031 20.53125 32.945312 2.105468 2.726563 4.320312 5.292969 6.621093 7.710938-10.15625 11.453125-20.136719 21.269531-27.15625 27.859375-7.007812-6.582031-16.976562-16.386719-27.152343-27.855469 2.304687-2.421875 4.523437-4.988281 6.628906-7.714844 8.097656-10.488281 15.003906-21.625 20.527344-32.945312zm-38.5-85.65625c.789062-.070313 1.558593-.105469 2.308593-.117188l-44.179687 58.84375 24.085937 18.085938 41.003907-54.605469c.105468 1.152344.21875 5.796875.222656 6.167969-.066406 3.691406-.453125 7.65625-1.175782 11.839844-3.378906 19.558593-13.367187 40.859374-28.132812 59.976562-20.339844 26.335938-57.066406 33.144531-76.414062 34.882812-1.90625-21.175781-2.492188-63.734374 18.789062-91.289062 19.269531-24.953125 44.191406-42.140625 63.492188-43.785156zm216.273437 172.71875-15.738281 5.390625 6.925781 15.128906c3.011719 6.574219 4.539063 13.667969 4.539063 21.085937 0 21.261719-12.8125 39.722657-31.15625 44.890626l-16.726563 4.714843 7.039063 15.886719c2.84375 6.410156 4.285156 13.324219 4.285156 20.550781 0 25.515625-18.476563 46.277344-41.183594 46.277344-.335938 0-.667969-.019531-1-.03125l-12.628906-.460937-2.929688 11.894531c-4.921875 19.976562-21.242187 33.929687-39.6875 33.929687-10.648437 0-20.761718-4.574218-28.476562-12.882812l-11.035156-11.882813-11.035157 11.882813c-7.714843 8.308594-17.828125 12.882812-28.476562 12.882812-18.445313 0-34.765625-13.953125-39.6875-33.929687l-2.933594-11.894531-12.625.460937c-.332031.015625-.664063.03125-1 .03125-22.707031 0-41.183594-20.761719-41.183594-46.277344 0-7.222656 1.441407-14.140625 4.285157-20.550781l7.039062-15.886719-16.722656-4.714843c-18.34375-5.167969-31.160156-23.628907-31.160156-44.890626 0-7.417968 1.527343-14.511718 4.539062-21.085937l6.925781-15.125-15.738281-5.390625c-17.1875-5.890625-29.191406-24.097656-29.191406-44.277344 0-24.648437 17.140625-44.945312 39.027344-46.210937l10.894531-.632813 2.792969-10.546875c5.375-20.300781 11.6875-30.289062 21.078124-34.738281-27.992187 48.070312-16.164062 114.144531-15.605468 117.144531l2.214844 11.914063 12.109374.386718c.261719.007813 1.03125.027344 2.242188.027344 9.746094 0 48.128906-1.320312 81.328125-20.828125 20.457031 23.289063 40.164063 40.179688 41.105469 40.984375l9.777344 8.339844 9.773437-8.339844c.945313-.804687 20.648437-17.695312 41.105469-40.984375 33.203125 19.507813 71.585937 20.828125 81.332031 20.828125 1.207031 0 1.976563-.019531 2.238281-.027344l12.113282-.386718 2.214843-11.914063c.554688-2.984375 12.277344-68.445312-15.203125-116.457031 8.21875 4.789062 13.851563 14.761719 18.949219 34l2.894531 10.914062 11.292969.28125c22.195313.550782 40.253906 21.296876 40.253906 46.246094.003907 20.179688-12 38.386719-29.191406 44.273438zm0 0" fill="#fff"/></svg>
