<svg height="512pt" viewBox="-18 0 511 512" width="512pt" xmlns="http://www.w3.org/2000/svg"><path d="m474.675781 218.347656c0-19.855468-7.070312-38.660156-19.90625-52.953125-10.492187-11.6875-23.882812-19.34375-38.5-22.1875-15.160156-45.679687-42.039062-52.957031-79.804687-49.359375l1.429687 14.992188-200.722656.109375 1.433594-14.988281c-16.835938-1.613282-36.226563-1.929688-52.386719 7.949218-13.023438 7.957032-22.410156 21.324219-29.140625 41.671875-32.472656 7.289063-56.578125 38.144531-56.578125 74.765625 0 27.910156 13.929688 52.933594 35.824219 66.316406-1.566407 6.335938-2.359375 12.875-2.359375 19.5625 0 29.015626 15.28125 55.015626 38.574218 67.902344-1.339843 5.886719-2.015624 11.953125-2.015624 18.140625 0 38.796875 27.132812 70.933594 62.136718 75.769531 11.148438 27.546876 36.707032 45.960938 65.414063 45.960938 14.28125 0 27.910156-4.460938 39.511719-12.765625 11.605468 8.304687 25.234374 12.765625 39.515624 12.765625 28.707032 0 54.265626-18.414062 65.414063-45.960938 35-4.835937 62.136719-36.972656 62.136719-75.769531 0-6.1875-.675782-12.253906-2.015625-18.140625 23.292969-12.886718 38.570312-38.886718 38.570312-67.902344 0-6.6875-.789062-13.230468-2.355469-19.5625 21.894532-13.382812 35.824219-38.40625 35.824219-66.316406zm0 0" fill="#ef3070"/><path d="m474.675781 218.347656c0-19.855468-7.070312-38.660156-19.90625-52.953125-10.492187-11.6875-23.882812-19.34375-38.5-22.1875-15.160156-45.679687-42.039062-52.957031-79.804687-49.359375l1.429687 14.992188-100.65625.054687v390.578125c.117188-.082031.234375-.160156.347657-.242187 11.601562 8.308593 25.230468 12.769531 39.511718 12.769531 28.710938 0 54.269532-18.417969 65.417969-45.960938 35-4.835937 62.132813-36.972656 62.132813-75.769531 0-6.191406-.671876-12.253906-2.011719-18.140625 23.292969-12.886718 38.570312-38.886718 38.570312-67.902344 0-6.6875-.789062-13.230468-2.355469-19.5625 21.894532-13.382812 35.824219-38.40625 35.824219-66.316406zm0 0" fill="#d1093a"/><path d="m237.578125 112.859375-66.675781 103.003906 6.910156 8.496094c23.238281 28.558594 48.917969 50.566406 50 51.488281l9.773438 8.339844 9.773437-8.339844c1.082031-.921875 26.761719-22.933594 50-51.492187l6.914063-8.496094zm0 0" fill="#4eaf2b"/><path d="m237.578125 112.859375-.339844.523437v170.507813l.347657.296875 9.773437-8.339844c1.085937-.921875 26.765625-22.933594 50.003906-51.492187l6.910157-8.496094zm0 0" fill="#2b9100"/><path d="m235.382812 72.082031c-10.109374-9.285156-23.550781-13.503906-38.859374-12.195312-28.152344 2.40625-59.84375 23.109375-84.773438 55.390625-37.261719 48.253906-23.546875 124.851562-22.941406 128.085937l2.214844 11.910157 12.109374.386718c.261719.011719 1.03125.03125 2.242188.03125 13.011719 0 77.058594-2.351562 111.679688-47.1875 17.710937-22.933594 29.777343-48.949218 33.976562-73.257812 4.691406-27.15625-.867188-49.585938-15.648438-63.164063zm0 0" fill="#c3dc4b"/><path d="m182.414062 166.714844-25.203124-20.363282 66.460937-83.875 28.621094 20.363282zm0 0" fill="#4eaf2b"/><path d="m252.640625 116.792969h-30.121094v-54.191407c0-24.3125 14.484375-45.984374 36.042969-53.929687l23.535156-8.671875 10.414063 28.261719-23.535157 8.671875c-9.769531 3.601562-16.335937 13.917968-16.335937 25.667968zm0 0" fill="#4eaf2b"/><path d="m282.097656 0-23.535156 8.671875c-8.300781 3.058594-15.542969 8.15625-21.324219 14.652344v93.46875h15.402344v-54.191407c0-11.75 6.566406-22.066406 16.339844-25.664062l23.53125-8.671875zm0 0" fill="#2b9100"/><path d="m386.367188 243.367188-2.21875 11.90625-12.109376.390624c-.261718.011719-1.035156.03125-2.238281.03125-13.015625 0-77.0625-2.347656-111.679687-47.191406-17.714844-22.929687-29.78125-48.945312-33.976563-73.253906-3.414062-19.757812-1.40625-37.007812 5.640625-50.171875 2.628906-4.929687 5.972656-9.285156 10.011719-12.992187 3.5625-3.273438 7.539063-5.914063 11.867187-7.910157 7.941407-3.667969 17.078126-5.132812 26.988282-4.289062 28.152344 2.410156 59.839844 23.113281 84.769531 55.394531 37.261719 48.253906 23.546875 124.84375 22.945313 128.085938zm0 0" fill="#75c12b"/><path d="m317.960938 148.625-24.085938 18.09375-64.089844-81.640625c2.628906-4.929687 5.972656-9.285156 10.011719-12.992187 3.5625-3.273438 7.539063-5.914063 11.867187-7.910157zm0 0" fill="#4eaf2b"/><path d="m363.421875 115.28125c-24.929687-32.28125-56.617187-52.984375-84.769531-55.394531-9.910156-.84375-19.046875.621093-26.988282 4.289062-4.328124 1.996094-8.304687 4.636719-11.867187 7.910157-.890625.816406-1.738281 1.667968-2.558594 2.546874v100.203126c5.582031 11.570312 12.605469 22.957031 20.882813 33.671874 34.617187 44.839844 98.664062 47.1875 111.679687 47.1875 1.203125 0 1.976563-.019531 2.238281-.027343l12.109376-.394531 2.21875-11.90625c.601562-3.242188 14.316406-79.832032-22.945313-128.085938zm0 0" fill="#4eaf2b"/><path d="m251.664062 64.175781c-4.328124 1.996094-8.304687 4.636719-11.867187 7.910157-.890625.816406-1.738281 1.667968-2.558594 2.546874v19.941407l56.636719 72.144531 24.085938-18.09375zm0 0" fill="#2b9100"/></svg>